<svg width="99" height="98" viewBox="0 0 99 98" fill="none" xmlns="http://www.w3.org/2000/svg">
<path d="M82.1667 27.5625C88.3684 27.5625 93.3958 22.535 93.3958 16.3333C93.3958 10.1316 88.3684 5.10416 82.1667 5.10416C75.965 5.10416 70.9375 10.1316 70.9375 16.3333C70.9375 22.535 75.965 27.5625 82.1667 27.5625Z" fill="#6D59E9"/>
<path opacity="0.3" d="M82.1667 32.6667C73.1425 32.6667 65.8334 25.3575 65.8334 16.3333C65.8334 13.3525 66.6908 10.5758 68.12 8.16666H29.0834C17.8134 8.16666 8.66669 17.2725 8.66669 28.5017V52.92V57.0033C8.66669 68.2325 17.8134 77.3383 29.0834 77.3383H35.2084C36.3109 77.3383 37.7809 78.0733 38.475 78.9717L44.6 87.0975C47.295 90.6908 51.705 90.6908 54.4 87.0975L60.525 78.9717C61.3008 77.9508 62.5258 77.3383 63.7917 77.3383H69.9167C81.1867 77.3383 90.3333 68.2325 90.3333 57.0033V30.38C87.9242 31.8092 85.1475 32.6667 82.1667 32.6667Z" fill="#111827"/>
<path d="M49.5 49C47.2134 49 45.4167 47.1625 45.4167 44.9167C45.4167 42.6708 47.2542 40.8333 49.5 40.8333C51.7459 40.8333 53.5834 42.6708 53.5834 44.9167C53.5834 47.1625 51.7867 49 49.5 49Z" fill="#111827"/>
<path d="M65.8333 49C63.5467 49 61.75 47.1625 61.75 44.9167C61.75 42.6708 63.5875 40.8333 65.8333 40.8333C68.0792 40.8333 69.9167 42.6708 69.9167 44.9167C69.9167 47.1625 68.12 49 65.8333 49Z" fill="#111827"/>
<path d="M33.1666 49C30.88 49 29.0833 47.1625 29.0833 44.9167C29.0833 42.6708 30.9208 40.8333 33.1666 40.8333C35.4125 40.8333 37.25 42.6708 37.25 44.9167C37.25 47.1625 35.4533 49 33.1666 49Z" fill="#111827"/>
</svg>
